{"accessors" : [{"bufferView" : 0, "byteOffset" : 0, "componentType" : 5123, "count" : 44160, "type" : "SCALAR", "max" : [33195], "min" : [0]}, {"bufferView" : 1, "byteOffset" : 0, "componentType" : 5126, "count" : 33196, "type" : "VEC3", "max" : [6.227550983428955, 10.324092864990234, 4.451988220214844], "min" : [-6.190724849700928, -5.957819938659668, -7.04945182800293], "name" : "POSITION"}, {"bufferView" : 1, "byteOffset" : 12, "componentType" : 5126, "count" : 33196, "type" : "VEC3", "max" : [0.9999486207962036, 0.9999879598617554, 0.9997891783714294], "min" : [-0.9999009370803833, -0.999523401260376, -0.9999294281005859], "name" : "NORMAL"}, {"bufferView" : 1, "byteOffset" : 24, "componentType" : 5126, "count" : 33196, "type" : "VEC2", "max" : [1.6131789684295654, -0.017479000613093376], "min" : [0.0005590000073425472, -0.998399019241333], "name" : "TEXCOORD_0"}], "asset" : {"generator" : "Aspose.3D 22.7", "version" : "2.0"}, "buffers" : [{"uri" : "data:application/octet-stream;base64,", "byteLength" : 1501448}], "bufferViews" : [{"buffer" : 0, "byteOffset" : 0, "byteLength" : 88320, "target" : 34963}, {"buffer" : 0, "byteOffset" : 88324, "byteLength" : 1413120, "byteStride" : 32, "target" : 34962}], "images" : [{"uri" : "data:image/jpeg;base64,"}], "materials" : [{"name" : "01_-_Default", "pbrMetallicRoughness" : {"baseColorFactor" : [1, 1, 1, 1], "baseColorTexture" : {"index" : 0, "texCoord" : 0}, "metallicFactor" : 1, "roughnessFactor" : 1}, "emissiveFactor" : [0, 0, 0], "alphaMode" : "OPAQUE", "doubleSided" : true}], "meshes" : [{"primitives" : [{"attributes" : {"POSITION" : 1, "NORMAL" : 2, "TEXCOORD_0" : 3}, "indices" : 0, "material" : 0, "mode" : 4}]}], "nodes" : [{"mesh" : 0, "name" : "Node #0"}], "samplers" : [{"magFilter" : 9729, "minFilter" : 9729, "wrapS" : 10497, "wrapT" : 10497}], "scene" : 0, "scenes" : [{"nodes" : [0]}], "textures" : [{"sampler" : 0, "source" : 0, "name" : ""}]}